<svg xmlns="http://www.w3.org/2000/svg" width="18" height="18" viewBox="0 0 18 18">
  <path d="M50.4,44.3 C50.4,45.7911688 49.1911688,47 47.7,47 L45.9,47 C44.4088312,47 43.2,45.7911688 43.2,44.3 C43.2,42.8088312 44.4088312,41.6 45.9,41.6 L47.7,41.6 C48.0065097,41.5995453 48.3108592,41.6512847 48.6,41.753 L48.6,29.9 L54,29 L54,32.6 L50.4,33.203 L50.4,44.3 Z M36,31.7 L46.8,31.7 L46.8,33.5 L36,33.5 L36,31.7 Z M36,35.3 L46.8,35.3 L46.8,37.1 L36,37.1 L36,35.3 Z M36,38.9 L46.8,38.9 L46.8,40.7 L36,40.7 L36,38.9 Z M36,42.5 L41.4,42.5 L41.4,44.3 L36,44.3 L36,42.5 Z" transform="translate(-36 -29)"/>
</svg>
