<svg xmlns="http://www.w3.org/2000/svg" class="padlock pcIcon" viewBox="0 0 10 12">
  <path fill="#3ECF8E" d="M1.66666667,4.44444444 L1.66666667,3.33333333 C1.66666667,1.49238417 3.15905083,3.38176876e-16 5,0 C6.84094917,-3.38176876e-16 8.33333333,1.49238417 8.33333333,3.33333333 L8.33333333,4.44444444 L8.88888889,4.44444444 C9.50253861,4.44444444 10,4.94190583 10,5.55555556 L10,10 C10,10.6136497 9.50253861,11.1111111 8.88888889,11.1111111 L1.11111111,11.1111111 C0.497461389,11.1111111 1.23358114e-16,10.6136497 0,10 L0,5.55555556 C0,4.94444444 0.5,4.44444444 1.11111111,4.44444444 L1.66666667,4.44444444 Z M3.33333333,3.33333333 L3.33333333,4.44444444 L6.66666667,4.44444444 L6.66666667,3.33333333 C6.66666667,2.41285875 5.92047458,1.66666667 5,1.66666667 C4.07952542,1.66666667 3.33333333,2.41285875 3.33333333,3.33333333 Z"/>
</svg>
